<svg xmlns="http://www.w3.org/2000/svg" viewBox="0 0 417.03 397.24"><defs><style>.cls-1{fill:none;stroke:#fff;stroke-miterlimit:10;stroke-width:4px;}</style></defs><g id="Calque_2" data-name="Calque 2"><g id="Calque_1-2" data-name="Calque 1"><path class="cls-1" d="M301.76,365.75l-8.67,5.11c-33.53,17.68-67.67,24.38-108.51,24.38-100,0-182.58-50-182.58-167C2,102.67,82.24,2,217.56,2c106.07,0,163.66,89.39,163,171-.62,79.62-49,133.31-87.34,134.44-31.41.93-53.13-62.13-61.39-84.87-9.65-26.54-16.08-42.43-38.45-43.28-1.68,0-5.43-.21-5.45-1.9,0-3.42-.06-6.71-.07-11a3,3,0,0,1,2.1-2.91c9.28-3.07,45.62-3,46.09-35.57.35-24.64-17.84-35.4-43.9-35.68A123.84,123.84,0,0,0,170,93.87a3.06,3.06,0,0,0-2.47,3V202.37c0,50.69-24.92,66.27-57.78,66.27a86.54,86.54,0,0,1-14.9-1.43,11.81,11.81,0,0,1-9.46-13.87,8.78,8.78,0,0,1,10.33-6.87,60.93,60.93,0,0,0,12,1.21c22.09,0,35.12-9.91,35.12-47.29V77.71a3.06,3.06,0,0,1,3.06-3.06s40.78-1.42,44.55-1.42c26.34,0,43.33,4.82,55.23,15.58,9.62,8.49,15,21.52,15,36.25,0,22.28-12.4,37.92-29.17,45.95a4.82,4.82,0,0,0-1.27,7.84c7.24,7.08,12.06,21.66,18,35.58,10.72,25.15,23.93,67,44.59,70,28.93,4.23,64.93-37.84,66.49-107.73,0-88.39-53-151.78-147.51-151.78C112.47,24.91,29,103.54,29,227.29,29,329.09,101.07,366,191.29,366c34.74,0,67-7.31,92-21.33l8.75-5.11"></path><path class="cls-1" d="M394,355.37a26.82,26.82,0,0,0-5.36-2,15,15,0,0,0-4.72-.68c-.18,0-.51,0-1,.05s-1,0-1.61,0H379.4c-.7,0-1.25,0-1.66,0a17.22,17.22,0,0,1-4.74-.49,24,24,0,0,1-4.88-2,29,29,0,0,1-3.3-1.85,24.93,24.93,0,0,1-2.62-2.07,45.26,45.26,0,0,0-5.16-4.21,15.76,15.76,0,0,0-4-2,27.69,27.69,0,0,0-13.27-1.36q-1,.09-1.86.21c-.54.07-.9.12-1.07.13a18.11,18.11,0,0,0-2.09.49c-.48.25-.92.51-1.33.77a2.47,2.47,0,0,0-.77.68c-.26.31,7.58,3.65,9.11,4.47a51.21,51.21,0,0,1,6.21,4.29,12.92,12.92,0,0,1,1.22,1c.5.45,1,.89,1.42,1.32s1,.81,1.37,1.18a8.19,8.19,0,0,0,1,.79,7,7,0,0,0,.48.52c.19.19.35.33.48.44a17.29,17.29,0,0,0,1.57,1.56c.79.71,1.59,1.41,2.41,2.1s2.46,2.23,2.65,2.42.44.41.75.67.8.66,1.27,1a11.91,11.91,0,0,1,1.18,1,21.87,21.87,0,0,0,3.39,2.36,56.66,56.66,0,0,0,5,2.74,25.54,25.54,0,0,0,4,1.65,44.47,44.47,0,0,0,9,1.21,28.23,28.23,0,0,0,7.91-.6,7.38,7.38,0,0,0,2.26-1.12,4.85,4.85,0,0,0,1.6-1.57c.05-.12.18-.47.39-1a17.08,17.08,0,0,0,.57-1.92Q400.29,358.56,394,355.37Z"></path><path class="cls-1" d="M414.92,293.73a15.39,15.39,0,0,0-1.22-3.33,14.43,14.43,0,0,0-1.59-3.21,11.78,11.78,0,0,0-2-2.13,25.24,25.24,0,0,0-9.9-4.38,39.23,39.23,0,0,0-12.71-.9l-1.64.15q-3.27.46-4.95.75a60.43,60.43,0,0,0-7.7,1.56,91,91,0,0,0-20,9.43,112.71,112.71,0,0,0-10.54,8.18q-6.27,5.36-9.62,8.88-7.18,8.24-9.71,15.95t.75,11.26c1.33,1.22,2.63,1.53,3.92.95q.66-.31.66-.84a6.81,6.81,0,0,0-.56-1.95q-3.1-6.27,6.55-13.32a52.31,52.31,0,0,1,10.44-5.47,72.29,72.29,0,0,1,12.84-4,262.74,262.74,0,0,1,32.88-4.53c4-.18,7-.37,9.05-.55a33.55,33.55,0,0,0,4.69-.68,20.11,20.11,0,0,0,3.3-1.17q6.38-2.67,7-7.87A7.13,7.13,0,0,0,414.92,293.73Z"></path><path class="cls-1" d="M326.49,354.51c.08.74.14,1.37.18,1.91s.12,1.09.17,1.61.1.92.15,1.2.1.58.16,1a11.65,11.65,0,0,1,.11,1.28c.09.85.23,1.84.44,3s.43,2.18.66,3.12c.1.34.18.69.25,1a6.24,6.24,0,0,1,.13.88,14.53,14.53,0,0,0,.4,1.48c.22.76.51,1.62.86,2.58s.64,1.72.84,2.22a8.2,8.2,0,0,0,.52,1.14,4,4,0,0,0,.54.71,3.86,3.86,0,0,0,3.34,1.32,3.91,3.91,0,0,0,1.23-.44,10.29,10.29,0,0,0,1.27-.78c.26-.21.47-.4.65-.57a8.83,8.83,0,0,0,1.38-2.81,9.22,9.22,0,0,0,.57-3.1c0-.23,0-.49,0-.76a4.35,4.35,0,0,1,0-.65,15.92,15.92,0,0,0-1.17-4.92,36.11,36.11,0,0,0-2.8-6c-.16-.23-.4-.62-.73-1.16l-1-1.69c-.58-1-1.25-2.07-2-3.28s-1.44-2.28-2.05-3.23-1-1.55-1.14-1.78l-.34-.46c-.13-.18-.23-.32-.32-.43a.9.9,0,0,0-.33-.34.94.94,0,0,0-.38-.14,2.28,2.28,0,0,0-1.2.3,1.53,1.53,0,0,0-.73.77,15.13,15.13,0,0,0,.14,5Q326.36,353.4,326.49,354.51Z"></path><path class="cls-1" d="M319.77,341.35l-26.53-1.23,4.11,11.18,4.89,13.32,19-19.38A2.38,2.38,0,0,0,319.77,341.35Z"></path></g></g></svg>