<?xml version="1.0" standalone="no"?>
<!DOCTYPE svg PUBLIC "-//W3C//DTD SVG 20010904//EN"
 "http://www.w3.org/TR/2001/REC-SVG-20010904/DTD/svg10.dtd">
<svg version="1.0" xmlns="http://www.w3.org/2000/svg"
 width="834.000000pt" height="834.000000pt" viewBox="0 0 834.000000 834.000000"
 preserveAspectRatio="xMidYMid meet">
<metadata>
Created by potrace 1.14, written by Peter Selinger 2001-2017
</metadata>
<g transform="translate(0.000000,834.000000) scale(0.100000,-0.100000)"
fill="#FFFFFF" stroke="none">
<path d="M4069 8136 c-2 -2 -50 -7 -105 -10 -56 -4 -112 -9 -125 -11 -13 -2
-53 -6 -89 -9 -36 -4 -75 -8 -85 -10 -11 -2 -40 -7 -65 -10 -49 -7 -91 -14
-130 -21 -14 -3 -36 -7 -50 -10 -77 -15 -128 -25 -147 -30 -13 -3 -33 -7 -44
-10 -52 -11 -190 -48 -254 -68 -38 -12 -73 -22 -77 -23 -5 -1 -9 -2 -10 -4 -2
-1 -10 -3 -18 -5 -35 -7 -307 -111 -410 -157 -142 -64 -483 -247 -500 -268 -3
-4 -25 -19 -50 -34 -25 -15 -70 -45 -100 -67 -30 -22 -66 -48 -80 -57 -14 -9
-34 -24 -45 -34 -11 -9 -49 -39 -85 -67 -130 -103 -377 -337 -470 -447 -103
-120 -133 -156 -184 -221 -75 -98 -226 -318 -226 -331 0 -6 -3 -12 -8 -14 -28
-12 -225 -386 -311 -593 -23 -55 -46 -109 -51 -120 -4 -11 -17 -45 -28 -75
-11 -30 -24 -64 -28 -75 -4 -11 -8 -22 -9 -25 -1 -3 -20 -64 -43 -136 -23 -71
-44 -139 -47 -150 -2 -10 -16 -64 -30 -118 -15 -55 -37 -152 -50 -215 -32
-155 -35 -171 -40 -206 -4 -29 -21 -144 -31 -215 -3 -19 -7 -55 -9 -80 -3 -25
-7 -67 -10 -95 -15 -147 -19 -258 -19 -530 0 -242 7 -450 14 -450 1 0 3 -22 5
-49 17 -214 94 -562 180 -811 178 -513 499 -967 920 -1301 85 -67 279 -204
290 -204 2 0 29 -16 59 -35 153 -98 447 -229 707 -315 97 -32 337 -96 399
-106 19 -3 37 -7 40 -9 7 -4 225 -43 285 -50 28 -4 61 -8 75 -10 26 -4 110
-14 170 -21 253 -26 816 -26 1120 0 59 6 154 16 180 21 14 2 45 7 70 10 46 5
86 12 130 20 50 10 75 15 110 20 28 4 118 26 330 79 38 10 226 69 235 75 6 3
15 6 20 7 16 3 146 54 193 76 24 11 49 21 57 22 7 1 19 7 26 12 8 6 30 17 49
24 56 21 198 94 283 144 63 37 117 86 280 252 111 114 207 212 213 218 34 36
37 77 8 120 -21 33 -29 34 -429 52 -82 3 -163 7 -180 8 -19 1 -52 -11 -91 -35
-99 -60 -263 -145 -344 -179 -41 -17 -88 -37 -105 -45 -133 -59 -475 -155
-680 -190 -151 -27 -199 -33 -282 -41 -37 -3 -79 -8 -93 -10 -161 -26 -832
-19 -1030 11 -14 2 -52 7 -85 10 -67 7 -95 11 -175 25 -30 5 -73 12 -95 15
-22 4 -48 8 -57 11 -21 6 -56 14 -88 19 -146 24 -473 128 -640 202 -73 33
-217 104 -270 134 -70 39 -278 178 -306 204 -6 5 -33 28 -59 50 -58 49 -175
163 -230 226 -159 181 -264 351 -383 619 -30 68 -99 281 -118 360 -6 27 -36
165 -40 185 -2 11 -6 38 -9 60 -3 22 -7 51 -9 65 -6 31 -14 102 -23 200 -10
98 -10 548 0 670 14 188 16 210 21 242 3 18 8 56 11 83 13 104 51 321 67 380
5 22 12 49 14 60 7 35 13 59 23 93 5 18 10 33 9 35 0 1 5 22 12 47 7 25 13 50
15 55 1 6 5 17 8 25 3 8 12 35 18 60 16 57 14 50 27 83 7 16 12 31 12 33 0 25
129 332 195 464 135 271 275 491 440 695 159 195 376 411 540 538 6 4 24 19
40 32 174 145 556 365 803 464 42 17 91 36 107 42 17 7 33 13 38 14 4 2 9 4
12 5 3 1 8 3 13 5 4 1 14 4 22 8 69 27 378 108 460 122 19 3 46 7 60 10 91 17
143 24 300 41 166 18 537 18 695 0 22 -3 65 -8 95 -11 91 -11 300 -47 375 -66
22 -6 47 -12 55 -13 8 -2 22 -6 30 -9 8 -3 35 -11 60 -17 125 -32 359 -124
495 -195 111 -58 180 -98 183 -107 2 -4 8 -8 13 -8 13 0 188 -122 235 -165 7
-5 31 -26 55 -45 111 -90 399 -406 399 -439 0 -5 4 -11 9 -13 34 -12 250 -406
306 -558 1 -3 7 -18 14 -34 44 -106 143 -452 157 -546 2 -14 5 -34 7 -45 11
-51 25 -144 32 -220 3 -27 7 -61 10 -75 18 -88 24 -433 10 -600 -4 -58 -9
-127 -11 -155 -2 -27 -3 -50 -4 -50 -2 0 -8 -34 -15 -83 -3 -24 -10 -66 -16
-95 -5 -29 -12 -65 -15 -82 -10 -63 -75 -304 -103 -385 -38 -112 -60 -165
-115 -284 -40 -85 -70 -137 -159 -281 -31 -50 -128 -167 -192 -231 -125 -127
-235 -200 -376 -251 -62 -22 -91 -27 -184 -27 -100 -1 -115 1 -165 26 -79 39
-88 46 -158 117 -89 90 -189 246 -289 450 -47 96 -86 179 -87 185 -1 6 -12 34
-25 61 -12 28 -54 129 -93 225 -116 287 -209 513 -224 544 -8 16 -14 33 -14
37 0 14 -124 274 -132 277 -5 2 -8 9 -8 16 0 15 -52 89 -96 136 -59 63 -51 89
40 140 272 149 452 373 521 644 30 119 37 175 37 291 -1 153 -14 230 -63 372
-82 235 -245 415 -486 537 -70 35 -243 99 -243 90 0 -2 -9 0 -19 5 -10 6 -34
13 -52 15 -19 3 -59 9 -89 15 -194 36 -396 42 -855 28 -607 -20 -579 -17 -612
-66 -16 -24 -17 -105 -18 -1351 -1 -729 -5 -1356 -9 -1395 -32 -296 -120 -481
-274 -579 -39 -24 -124 -57 -188 -72 -45 -10 -310 -13 -354 -3 -123 28 -205
11 -268 -54 -81 -83 -74 -247 15 -343 77 -84 176 -107 468 -108 203 -1 242 4
399 44 324 85 564 303 677 617 11 32 23 65 26 73 9 24 10 26 37 140 8 36 18
88 22 115 4 28 9 64 12 80 3 17 7 563 9 1215 2 724 8 1189 13 1194 6 6 15 11
22 12 7 1 29 4 49 7 125 21 409 27 543 13 200 -21 386 -98 495 -206 112 -110
161 -232 167 -415 9 -253 -85 -426 -296 -547 -25 -14 -48 -27 -52 -27 -4 -1
-27 -10 -50 -20 -54 -23 -178 -56 -288 -77 -47 -9 -89 -17 -95 -18 -5 -2 -28
-6 -50 -10 -55 -10 -101 -35 -116 -62 -14 -26 -18 -237 -6 -285 10 -40 49 -56
153 -64 275 -21 420 -136 569 -450 26 -55 48 -104 50 -110 1 -5 5 -19 10 -30
37 -96 58 -154 90 -240 189 -519 334 -850 471 -1081 33 -55 61 -103 63 -109 2
-5 8 -14 13 -20 4 -5 41 -55 82 -110 80 -109 174 -208 258 -272 56 -44 178
-109 219 -117 13 -3 45 -9 70 -14 60 -12 181 -6 264 13 354 80 714 341 993
720 28 39 55 75 60 80 4 6 30 46 57 90 185 297 298 564 396 935 11 41 22 91
25 110 3 19 7 37 9 40 2 3 6 24 9 46 4 22 9 51 11 64 3 14 7 43 10 65 3 22 8
51 10 65 3 14 8 43 10 65 2 22 8 74 12 115 4 41 8 190 8 330 -1 265 -6 367
-31 513 -6 38 -8 51 -18 127 -4 25 -9 52 -11 60 -2 8 -7 29 -10 47 -3 18 -9
43 -15 57 -5 15 -8 26 -5 26 2 0 -1 15 -6 33 -6 17 -12 39 -14 47 -45 198
-160 508 -263 715 -227 453 -504 805 -867 1103 -123 101 -102 85 -215 163
-220 152 -429 258 -736 373 -110 40 -405 113 -529 131 -23 3 -50 7 -60 9 -20
4 -102 14 -185 23 -54 6 -606 14 -611 9z m608 -90 c12 -2 53 -8 90 -11 37 -4
77 -9 88 -11 10 -2 37 -6 60 -9 22 -3 47 -8 55 -10 8 -2 29 -7 45 -9 127 -23
285 -66 437 -120 129 -45 306 -121 322 -137 6 -5 18 -9 28 -9 10 0 18 -3 18
-8 0 -4 15 -14 33 -21 50 -23 262 -151 265 -162 2 -5 8 -9 14 -9 9 0 104 -65
118 -80 3 -3 25 -21 50 -40 25 -19 47 -37 50 -40 3 -3 34 -30 70 -60 104 -88
276 -266 375 -390 100 -124 225 -301 225 -318 0 -6 4 -12 8 -14 26 -10 205
-355 274 -528 68 -168 151 -427 172 -535 2 -11 7 -31 10 -45 12 -53 43 -219
51 -280 3 -25 8 -56 10 -70 27 -167 27 -649 0 -850 -1 -14 -6 -50 -9 -80 -4
-30 -9 -62 -11 -70 -2 -8 -7 -35 -10 -60 -3 -25 -8 -52 -10 -60 -2 -8 -7 -30
-10 -49 -3 -19 -7 -37 -9 -40 -2 -3 -7 -22 -10 -41 -3 -19 -15 -69 -26 -110
-12 -41 -22 -82 -24 -90 -4 -14 -48 -142 -90 -260 -18 -49 -17 -47 -101 -223
-97 -205 -220 -397 -359 -564 -79 -95 -244 -256 -321 -313 -33 -25 -62 -48
-65 -51 -8 -10 -151 -94 -208 -123 -92 -46 -231 -89 -332 -102 -112 -14 -207
-4 -285 32 -158 73 -326 244 -485 494 -53 84 -192 350 -242 465 -72 163 -106
245 -101 245 3 0 1 6 -4 13 -6 6 -36 82 -67 167 -32 85 -61 164 -66 175 -5 11
-34 90 -65 175 -64 174 -69 185 -136 325 -106 221 -217 342 -374 408 -80 33
-112 40 -245 52 -36 4 -69 10 -74 15 -10 10 -14 183 -4 210 4 12 21 20 50 25
24 4 52 9 63 12 11 2 55 10 97 18 204 37 401 114 511 200 178 140 262 363 233
620 -27 236 -141 407 -346 518 -59 32 -172 76 -210 81 -8 2 -28 6 -45 9 -112
26 -151 29 -335 30 -183 1 -279 -5 -388 -24 -60 -10 -77 -17 -97 -41 l-25 -30
-1 -1126 c-1 -1170 -1 -1195 -19 -1327 -18 -134 -20 -146 -51 -255 -27 -96
-105 -275 -133 -307 -6 -7 -33 -41 -60 -75 -50 -63 -133 -140 -184 -168 -15
-8 -29 -18 -32 -21 -15 -19 -173 -83 -260 -105 -129 -32 -182 -38 -360 -38
-290 1 -382 25 -440 119 -28 45 -31 126 -7 172 10 18 34 41 55 51 38 20 58 20
152 6 118 -19 395 -8 441 16 9 5 19 7 22 3 4 -3 14 0 23 8 10 8 19 13 20 12 9
-6 94 39 139 72 81 61 148 153 196 270 22 55 55 186 64 253 3 26 8 63 11 82 4
19 7 637 8 1373 2 802 6 1341 12 1346 5 5 97 12 204 15 107 3 272 9 365 12
228 9 481 9 585 1 229 -18 420 -60 558 -123 29 -13 55 -24 58 -24 3 0 43 -24
87 -53 108 -71 220 -181 274 -272 49 -83 103 -228 117 -315 3 -19 8 -46 11
-60 6 -31 7 -237 1 -266 -2 -12 -7 -39 -10 -60 -46 -289 -237 -539 -523 -684
-48 -24 -92 -72 -94 -101 -1 -10 -2 -25 -2 -31 -3 -36 17 -78 57 -123 55 -61
112 -159 177 -303 49 -110 76 -178 259 -627 55 -137 110 -269 121 -292 10 -24
19 -45 19 -47 0 -2 21 -48 47 -103 26 -54 47 -100 47 -103 4 -24 169 -304 208
-355 114 -144 233 -236 334 -261 59 -14 211 -13 280 3 144 32 331 142 464 275
214 213 401 535 511 883 10 33 23 74 28 90 13 41 52 194 57 225 3 14 11 59 19
100 8 41 17 95 20 120 3 25 8 63 12 85 3 22 7 54 9 70 1 17 5 68 9 115 14 156
10 425 -9 630 -6 66 -18 165 -22 185 -3 11 -7 36 -9 55 -3 19 -7 46 -10 60 -3
14 -8 41 -11 60 -4 29 -18 85 -68 285 -2 6 -6 17 -9 25 -3 8 -15 44 -25 80
-91 304 -273 644 -487 910 -78 97 -275 297 -355 360 -24 19 -58 47 -76 63 -17
15 -37 27 -43 27 -6 0 -11 3 -11 8 0 4 -28 25 -63 47 -34 22 -63 43 -65 47 -2
5 -8 8 -13 8 -5 0 -37 18 -73 39 -112 69 -419 208 -496 226 -8 2 -35 11 -60
20 -77 27 -232 66 -400 100 -48 9 -124 20 -218 30 -29 4 -61 8 -72 10 -76 15
-472 21 -620 11 -158 -12 -294 -28 -386 -47 -28 -5 -55 -9 -60 -8 -5 1 -16 0
-24 -3 -8 -4 -69 -18 -135 -33 -66 -15 -138 -33 -160 -40 -22 -7 -74 -23 -115
-35 -190 -57 -445 -168 -650 -284 -155 -87 -408 -256 -418 -278 -2 -5 -10 -8
-17 -8 -7 0 -15 -4 -17 -8 -1 -5 -48 -46 -103 -92 -217 -182 -427 -411 -603
-659 -45 -64 -86 -121 -91 -127 -5 -6 -47 -76 -94 -156 -92 -157 -193 -361
-250 -503 -20 -49 -41 -103 -48 -120 -7 -16 -13 -34 -15 -40 -1 -5 -12 -37
-24 -70 -12 -33 -26 -73 -30 -90 -5 -16 -22 -77 -40 -135 -25 -86 -63 -244
-86 -355 -2 -11 -6 -31 -9 -45 -2 -14 -7 -38 -9 -55 -3 -16 -7 -43 -10 -60
-20 -119 -36 -240 -42 -320 -2 -27 -6 -68 -8 -90 -7 -63 -17 -391 -16 -490 2
-118 12 -275 25 -379 9 -68 18 -132 21 -151 3 -11 7 -36 10 -55 3 -19 12 -63
19 -96 8 -34 16 -74 19 -88 5 -30 82 -275 98 -314 6 -15 12 -33 14 -41 8 -41
164 -334 230 -432 42 -63 80 -116 83 -119 4 -3 34 -39 68 -80 173 -213 454
-434 736 -579 103 -53 292 -138 327 -147 8 -2 60 -19 115 -38 55 -20 100 -35
100 -34 0 0 27 -7 60 -17 33 -9 69 -19 79 -21 10 -2 33 -8 50 -13 17 -6 42
-12 56 -15 14 -2 72 -14 130 -25 127 -26 156 -31 195 -36 17 -2 46 -6 66 -10
38 -6 74 -10 179 -20 36 -4 81 -8 100 -10 94 -10 304 -18 475 -19 225 0 401 9
570 29 46 5 71 9 150 19 17 2 58 9 93 16 35 6 75 13 90 15 71 11 333 79 457
120 201 66 469 188 620 283 32 20 53 28 59 22 8 -8 48 -104 60 -145 2 -5 6
-17 9 -25 3 -8 22 -60 42 -115 19 -55 40 -111 46 -124 5 -13 8 -25 7 -26 -29
-20 -129 -75 -137 -75 -6 0 -11 -3 -11 -8 0 -11 -257 -133 -403 -191 -97 -39
-305 -110 -372 -127 -27 -7 -76 -20 -107 -28 -55 -16 -258 -59 -328 -71 -19
-3 -46 -7 -60 -10 -63 -11 -257 -35 -335 -41 -27 -2 -95 -7 -150 -11 -133 -10
-640 -10 -785 1 -166 11 -185 13 -238 21 -26 5 -63 9 -82 10 -19 2 -35 4 -35
5 0 1 -13 3 -30 5 -54 5 -114 15 -187 30 -40 8 -89 17 -108 20 -70 11 -344 86
-461 125 -178 60 -451 174 -457 191 -2 5 -10 9 -17 9 -8 0 -37 13 -65 30 -28
16 -53 30 -56 30 -9 0 -219 133 -222 141 -2 5 -8 9 -14 9 -12 0 -147 101 -238
178 -121 104 -257 244 -360 372 -19 24 -40 48 -45 54 -17 18 -148 216 -192
291 -35 61 -107 206 -156 315 -22 52 -106 286 -111 313 -3 12 -5 22 -6 22 -2
0 -3 2 -39 147 -16 64 -32 134 -35 155 -4 21 -10 61 -16 88 -5 28 -11 66 -14
85 -6 45 -17 127 -21 160 -26 204 -26 749 0 1005 11 102 16 151 20 182 3 18 7
50 10 70 3 21 8 52 10 68 3 17 7 41 9 55 2 14 11 63 20 110 8 47 18 100 21
119 3 19 8 37 10 41 2 4 6 20 9 36 3 16 13 56 21 89 40 153 47 181 52 195 4 8
7 21 9 27 11 55 121 364 160 450 8 17 14 33 14 36 0 9 69 157 125 267 219 435
498 808 851 1140 53 50 167 149 202 175 7 6 19 15 26 22 48 43 267 194 383
265 333 203 686 352 1066 452 73 20 143 37 157 40 14 2 45 9 70 15 25 5 61 12
80 16 19 3 49 8 65 12 17 3 40 7 52 9 13 1 40 5 60 8 52 9 98 15 163 21 30 3
71 8 90 10 19 3 80 8 135 11 55 4 101 8 103 9 6 5 557 -3 579 -9z m1523 -6760
c58 -3 124 -5 148 -5 23 -1 42 -5 42 -10 0 -4 -74 -84 -164 -177 -157 -160
-165 -167 -174 -144 -5 14 -35 93 -66 176 -31 84 -56 156 -56 162 0 5 34 8 83
6 45 -2 129 -6 187 -8z"/>
<path d="M7665 2579 c-27 -5 -63 -11 -80 -13 -16 -2 -50 -9 -75 -15 -25 -7
-54 -14 -65 -16 -31 -7 -140 -52 -225 -93 -175 -84 -315 -186 -522 -382 -249
-234 -363 -539 -247 -658 38 -39 91 -51 128 -29 32 19 37 53 19 110 -15 44 -8
87 19 115 7 7 18 21 25 31 44 61 242 168 398 214 79 24 241 58 335 72 22 3 47
8 55 10 9 3 40 7 70 10 30 2 69 6 85 9 80 11 230 25 342 31 159 9 241 31 317
85 95 69 119 186 62 304 -54 111 -144 171 -316 212 -42 10 -272 12 -325 3z
m306 -84 c81 -19 139 -39 139 -47 0 -5 7 -8 15 -8 30 0 92 -69 114 -128 32
-85 20 -139 -42 -186 -60 -46 -121 -61 -278 -71 -81 -5 -213 -15 -254 -20 -16
-2 -57 -6 -90 -9 -33 -3 -69 -8 -81 -10 -12 -2 -45 -7 -75 -11 -30 -3 -61 -8
-69 -10 -8 -2 -31 -7 -50 -10 -118 -20 -242 -50 -331 -80 -102 -35 -258 -108
-301 -142 -46 -37 -129 -126 -144 -155 -16 -31 -21 -101 -9 -137 10 -33 -5
-24 -19 10 -8 18 -12 52 -9 78 4 49 49 171 67 183 6 4 8 8 4 8 -4 0 4 17 17
38 14 20 31 46 38 56 44 69 177 201 302 301 27 22 58 48 69 57 44 40 168 116
266 164 162 80 268 113 415 129 33 4 62 9 63 10 10 9 196 1 243 -10z"/>
<path d="M6838 1415 c-2 -2 -32 -6 -68 -9 -72 -7 -132 -31 -149 -59 -23 -36
-3 -57 105 -108 144 -67 194 -103 354 -253 253 -238 414 -318 640 -318 153 0
221 28 259 107 28 59 37 140 22 187 -17 50 -77 102 -156 134 -63 25 -86 28
-226 34 -155 5 -157 6 -231 43 -42 20 -91 51 -109 69 -83 77 -185 140 -252
154 -57 12 -183 25 -189 19z m183 -105 c63 -19 120 -53 179 -107 56 -51 82
-69 137 -96 91 -47 128 -55 256 -56 134 -2 188 -12 260 -48 68 -34 86 -74 66
-150 -21 -85 -44 -98 -177 -100 -59 0 -135 5 -169 12 -70 15 -220 90 -273 135
-19 17 -59 52 -89 78 -30 26 -69 61 -87 77 -135 126 -208 182 -301 229 -74 37
-87 46 -56 42 9 -2 30 0 47 4 48 10 141 1 207 -20z"/>
<path d="M6522 1247 c-36 -16 -50 -71 -38 -152 3 -22 7 -65 10 -97 5 -50 12
-103 20 -148 14 -76 21 -105 43 -173 47 -146 118 -186 215 -122 62 41 86 139
64 255 -13 67 -91 215 -199 377 -43 64 -72 79 -115 60z m174 -313 c19 -33 42
-85 52 -116 34 -101 10 -199 -50 -206 -21 -3 -29 4 -45 40 -17 37 -26 62 -39
113 -1 6 -5 25 -9 44 -3 19 -8 37 -10 40 -2 4 -6 33 -10 66 -3 33 -8 74 -10
90 -2 17 -7 57 -10 90 l-5 60 51 -80 c29 -44 67 -107 85 -141z"/>
</g>
</svg>
